<?xml version="1.0" encoding="utf-8" standalone="no"?>
<!DOCTYPE svg PUBLIC "-//W3C//DTD SVG 1.1//EN"
  "http://www.w3.org/Graphics/SVG/1.1/DTD/svg11.dtd">
<!-- Created with matplotlib (http://matplotlib.org/) -->
<svg height="180pt" version="1.1" viewBox="0 0 360 180" width="360pt" xmlns="http://www.w3.org/2000/svg" xmlns:xlink="http://www.w3.org/1999/xlink">
 <defs>
  <style type="text/css">
*{stroke-linecap:butt;stroke-linejoin:round;stroke-miterlimit:100000;}
  </style>
 </defs>
 <g id="figure_1">
  <g id="patch_1">
   <path d="M 0 180 
L 360 180 
L 360 0 
L 0 0 
z
" style="fill:#ffffff;"/>
  </g>
  <g id="axes_1">
   <g id="patch_2">
    <path d="M 57.6 142.2 
L 342.7875 142.2 
L 342.7875 20.7 
L 57.6 20.7 
z
" style="fill:#ffffff;"/>
   </g>
   <g id="line2d_1">
    <path clip-path="url(#pbd6af0925b)" d="M 361 141.180333 
L 360.741823 141.395553 
L 359.380227 141.272862 
L 358.028499 140.135461 
L 356.68653 139.506647 
L 355.354215 139.948442 
L 354.031452 138.496644 
L 352.718136 139.599402 
L 351.414168 141.43657 
L 347.557361 137.6282 
L 346.289803 139.320302 
L 345.031108 141.718621 
L 343.781185 141.317824 
L 342.539941 140.600475 
L 341.307288 139.483966 
L 340.083136 141.308058 
L 338.867397 140.330094 
L 337.659985 139.868916 
L 336.460815 140.570973 
L 335.269802 141.584782 
L 334.086864 140.337571 
L 332.911919 139.821897 
L 331.744886 141.115217 
L 330.585686 140.163762 
L 329.434239 139.596419 
L 328.290469 140.11547 
L 327.154298 141.413627 
L 326.025652 141.807112 
L 324.904455 140.967729 
L 323.790635 141.531682 
L 322.684119 141.739889 
L 321.584835 141.708698 
L 320.492712 140.270435 
L 319.407681 140.727358 
L 318.329672 139.630515 
L 317.258619 140.640862 
L 316.194453 139.768427 
L 315.137109 139.475478 
L 314.086522 140.192513 
L 313.042625 140.023118 
L 312.005357 137.569688 
L 310.974654 141.118716 
L 309.950453 141.020958 
L 308.932695 140.37819 
L 307.921317 141.288649 
L 306.91626 140.905009 
L 305.917465 141.360575 
L 304.924874 141.251299 
L 302.958073 139.582216 
L 301.98375 139.354997 
L 301.015405 139.862652 
L 300.052982 141.73696 
L 299.096427 140.637262 
L 298.145688 141.226129 
L 297.20071 139.781122 
L 296.261443 137.464438 
L 295.327833 136.676811 
L 294.399831 140.104045 
L 292.560448 140.209198 
L 291.648968 139.225634 
L 290.742897 141.541457 
L 289.842187 139.485093 
L 288.946792 139.646565 
L 288.056664 139.987849 
L 287.171756 139.682494 
L 286.292023 141.836797 
L 285.41742 141.494753 
L 284.547902 140.215417 
L 283.683424 139.790978 
L 282.823943 140.77301 
L 281.969416 138.340659 
L 281.119801 140.25461 
L 280.275054 140.756862 
L 279.435134 141.808106 
L 278.6 140.10462 
L 277.769611 141.784596 
L 276.943927 141.604887 
L 276.122908 141.691693 
L 275.306514 140.615422 
L 274.494707 139.122751 
L 273.687447 140.828629 
L 272.884698 141.127938 
L 272.086421 140.677341 
L 271.292578 141.182684 
L 270.503134 140.089966 
L 269.718051 140.990269 
L 268.937293 137.419402 
L 268.160826 138.000794 
L 267.388613 140.115599 
L 266.62062 140.216185 
L 265.856812 139.52966 
L 265.097155 139.523512 
L 264.341616 140.062109 
L 263.59016 136.220588 
L 262.842756 140.01814 
L 262.09937 138.782549 
L 261.35997 138.088149 
L 260.624524 139.292704 
L 259.893 140.815501 
L 259.165367 139.984854 
L 258.441595 141.286183 
L 257.721652 141.07835 
L 257.005508 137.509875 
L 256.293133 137.419773 
L 255.584498 138.874395 
L 254.879573 139.837421 
L 254.178329 139.605191 
L 253.480737 140.695007 
L 252.786769 139.279862 
L 252.096397 139.805797 
L 251.409593 139.934703 
L 250.726329 139.167438 
L 250.046578 140.307189 
L 248.697506 141.106483 
L 248.028133 140.071548 
L 247.362166 139.964341 
L 246.69958 137.514156 
L 246.040348 140.434165 
L 245.384446 138.388154 
L 244.08253 140.121184 
L 243.436466 137.314668 
L 242.793633 138.744584 
L 242.154006 136.678368 
L 241.517561 134.218478 
L 240.884274 129.040458 
L 240.254123 133.621479 
L 239.627083 132.150657 
L 239.003133 133.056631 
L 238.382248 128.831755 
L 237.149587 123.537786 
L 236.537767 103.024239 
L 235.928923 28.757298 
L 235.323035 84.41525 
L 234.720082 123.56778 
L 234.120041 126.937472 
L 233.522892 131.066822 
L 232.337185 137.091422 
L 231.748587 134.142256 
L 231.162798 130.40893 
L 229.999569 135.193417 
L 229.42209 134.652551 
L 228.84734 137.203388 
L 228.275302 136.106504 
L 227.705956 137.82292 
L 227.139283 138.169305 
L 226.575263 137.979653 
L 226.01388 137.533826 
L 224.898946 140.970407 
L 224.34536 138.880566 
L 223.794336 140.331035 
L 223.245857 136.286351 
L 222.699906 135.229404 
L 222.156466 135.096312 
L 221.615517 140.818282 
L 221.077045 140.48809 
L 220.541032 140.323613 
L 220.00746 140.746321 
L 219.476314 140.326536 
L 218.947577 138.87379 
L 218.421232 138.627976 
L 217.897263 139.921127 
L 217.375655 140.363561 
L 216.85639 140.380353 
L 216.339455 141.125488 
L 215.824832 139.997661 
L 215.312507 139.553445 
L 214.802464 140.214375 
L 214.294688 139.649927 
L 213.789163 138.855529 
L 213.285875 140.21638 
L 212.78481 139.77969 
L 212.285951 139.698556 
L 211.789286 140.842545 
L 211.294799 138.572813 
L 210.802475 137.486001 
L 210.312302 139.356201 
L 209.824265 140.394995 
L 209.338349 141.040376 
L 208.854542 141.898201 
L 208.372829 140.463052 
L 207.893197 141.617153 
L 207.415632 140.671532 
L 206.940121 139.319862 
L 206.466651 139.155887 
L 205.995209 141.099981 
L 205.525781 140.497402 
L 205.058356 141.152178 
L 204.592919 141.038947 
L 204.129459 141.592066 
L 203.667962 141.532206 
L 203.208417 140.905898 
L 202.750811 141.218866 
L 202.295132 140.988293 
L 201.841367 140.299868 
L 200.939533 139.807204 
L 200.491441 141.305522 
L 200.045215 138.829901 
L 199.600845 139.179154 
L 199.158318 140.161414 
L 198.717624 141.446554 
L 198.278751 140.854081 
L 197.841688 141.1133 
L 197.406424 140.490169 
L 196.972947 141.691987 
L 196.541246 138.956678 
L 196.111311 139.021326 
L 195.683131 139.585085 
L 195.256696 140.342248 
L 194.831993 140.536445 
L 194.409014 140.333451 
L 193.987747 140.34074 
L 193.568182 139.535756 
L 193.150309 136.760017 
L 192.734117 139.000444 
L 192.319597 139.281338 
L 191.906738 141.282296 
L 191.495531 141.661767 
L 191.085966 141.426691 
L 190.678032 141.472106 
L 190.27172 140.988982 
L 189.86702 141.258253 
L 189.06242 140.051072 
L 188.6625 140.362336 
L 188.264155 140.356556 
L 187.867375 141.939683 
L 187.078474 140.972377 
L 186.686334 140.100439 
L 186.295724 140.142534 
L 185.906633 140.054884 
L 185.519053 141.576696 
L 185.132976 141.676183 
L 184.748392 141.919567 
L 184.365293 141.607002 
L 183.983671 141.698216 
L 183.603516 139.565545 
L 183.22482 139.272499 
L 182.847575 139.67533 
L 182.471773 139.400396 
L 182.097406 139.633417 
L 181.724464 140.029969 
L 181.352941 140.174099 
L 180.982827 140.919028 
L 180.614116 137.85836 
L 180.246798 137.886991 
L 179.880867 140.581155 
L 179.516314 141.144611 
L 179.153131 141.307373 
L 178.791311 140.716361 
L 178.430846 140.72777 
L 178.071729 141.511118 
L 177.713952 141.516904 
L 177.357507 140.500206 
L 177.002387 141.063763 
L 176.648585 140.905966 
L 176.296094 140.458766 
L 175.944905 141.415821 
L 174.899087 140.008129 
L 174.208259 141.922205 
L 173.522474 141.302563 
L 173.181455 141.704509 
L 172.841676 140.888508 
L 172.503131 141.456588 
L 172.165812 141.477489 
L 171.829713 140.982318 
L 171.494827 141.593789 
L 171.161149 141.490576 
L 170.82867 141.836437 
L 170.497386 141.489315 
L 170.167288 141.82129 
L 169.838372 141.831487 
L 169.510631 140.299238 
L 169.184057 140.465024 
L 168.534392 141.834532 
L 168.211287 141.420757 
L 167.889325 140.029674 
L 167.568502 141.543337 
L 167.24881 140.968876 
L 166.930243 141.557034 
L 166.612797 141.028535 
L 166.296464 141.198076 
L 165.667116 141.167252 
L 165.35409 140.474324 
L 165.042155 141.38652 
L 164.731304 139.582895 
L 164.421533 141.601929 
L 164.112836 141.89492 
L 163.805207 141.325759 
L 163.49864 141.749055 
L 163.19313 141.002125 
L 162.888673 141.835564 
L 162.585261 140.719526 
L 161.981555 141.60441 
L 161.68125 141.357205 
L 161.38197 139.913989 
L 161.08371 141.331455 
L 160.786464 139.884395 
L 160.490227 140.034937 
L 160.194995 140.981315 
L 159.900761 139.920421 
L 159.607522 139.316079 
L 159.315272 139.727611 
L 159.024006 141.444553 
L 158.733718 140.76163 
L 158.444405 141.539509 
L 158.156062 141.209484 
L 157.868682 141.553962 
L 157.582262 141.222969 
L 157.296797 141.435605 
L 157.012282 139.793416 
L 156.728712 139.133669 
L 156.446082 141.107064 
L 156.164388 140.302688 
L 155.60379 141.38337 
L 155.324876 140.987477 
L 155.04688 139.941262 
L 154.769797 141.889169 
L 154.493622 141.57031 
L 154.218351 141.032578 
L 153.94398 140.227529 
L 153.670504 140.230951 
L 153.397918 139.127348 
L 153.12622 140.495292 
L 152.855403 141.187337 
L 152.316399 141.766639 
L 152.048203 141.719981 
L 151.780872 140.985494 
L 151.514402 140.838155 
L 151.248789 140.383735 
L 150.720117 142.000978 
L 150.45705 140.134204 
L 149.933433 141.477369 
L 149.672875 140.532752 
L 149.413146 140.619302 
L 149.154241 140.375245 
L 148.896157 141.504245 
L 148.638889 141.376108 
L 148.382435 141.961386 
L 148.126789 139.802868 
L 147.871949 139.293036 
L 147.61791 141.374479 
L 147.364668 140.288505 
L 147.112221 141.357644 
L 146.860563 140.575446 
L 146.609692 140.900749 
L 146.359604 141.003367 
L 145.861761 141.643148 
L 145.613999 140.813458 
L 145.367006 141.633575 
L 145.120777 140.899865 
L 144.875309 142.00576 
L 144.386643 139.95916 
L 144.143437 140.021402 
L 143.900979 141.129125 
L 143.418291 141.681588 
L 143.178053 140.112572 
L 142.93855 140.432225 
L 142.699776 141.771385 
L 142.461729 141.681989 
L 142.224406 140.83976 
L 141.987803 141.723734 
L 141.751918 141.097199 
L 141.516745 141.902026 
L 141.282284 141.628535 
L 141.048529 141.664955 
L 140.58313 140.201855 
L 140.351478 140.520754 
L 140.120521 141.801028 
L 139.890255 141.813147 
L 139.660678 140.869045 
L 139.431786 140.66674 
L 139.203577 141.362452 
L 138.976046 141.135164 
L 138.749192 141.072888 
L 138.523011 140.225175 
L 138.2975 141.038315 
L 138.072656 140.914402 
L 137.624959 141.363497 
L 137.402099 141.220265 
L 137.179894 139.82617 
L 136.73744 141.101898 
L 136.517185 141.409514 
L 136.297574 141.352612 
L 136.078604 139.598456 
L 135.860272 139.370921 
L 135.425513 141.681997 
L 135.20908 141.83853 
L 134.778093 140.849403 
L 134.563534 140.944712 
L 134.349594 140.898039 
L 134.136271 141.575868 
L 133.923561 141.290323 
L 133.711463 141.465852 
L 133.499973 141.879219 
L 133.289089 140.382945 
L 133.078809 140.940083 
L 132.660048 139.779091 
L 132.451562 141.357651 
L 132.24367 140.244038 
L 132.036368 141.835048 
L 131.829654 140.916332 
L 131.623526 141.538098 
L 131.417981 141.032492 
L 131.213016 141.135996 
L 131.00863 141.762804 
L 130.601582 141.32223 
L 130.398916 142.14617 
L 130.196818 141.221292 
L 129.995286 141.36614 
L 129.794318 141.325441 
L 129.394064 140.223547 
L 129.194773 140.277577 
L 128.996036 141.097658 
L 128.797852 139.637275 
L 128.600217 140.627914 
L 128.403129 140.661059 
L 128.206587 141.586908 
L 127.815129 140.794129 
L 127.620209 140.837753 
L 127.425825 141.321698 
L 127.231975 139.808028 
L 127.038657 141.545992 
L 126.845869 140.177302 
L 126.653608 141.050321 
L 126.461872 140.943458 
L 126.27066 140.442042 
L 125.889796 141.956201 
L 125.70014 140.881154 
L 125.510999 140.570416 
L 125.32237 140.811689 
L 125.134252 139.965942 
L 124.572941 142.066808 
L 124.386844 140.172985 
L 124.201247 139.470958 
L 124.016149 141.881809 
L 123.831547 141.224597 
L 123.64744 141.513958 
L 123.463824 140.980453 
L 123.280699 139.470988 
L 122.915912 141.360518 
L 122.734246 140.122489 
L 122.553063 140.904116 
L 122.37236 140.004488 
L 122.192136 139.736932 
L 122.012388 141.425018 
L 121.833116 140.004893 
L 121.654316 139.808592 
L 121.475988 140.618207 
L 121.298129 140.333668 
L 121.120738 141.214921 
L 120.943812 140.799346 
L 120.767349 141.329415 
L 120.591349 139.400246 
L 120.415809 139.865451 
L 120.240727 141.503866 
L 120.066102 140.554136 
L 119.891931 140.852663 
L 119.718214 139.516094 
L 119.37213 141.778765 
L 119.027838 140.861143 
L 118.856359 140.365122 
L 118.685323 141.268765 
L 118.514727 140.610693 
L 118.34457 141.361042 
L 118.174851 140.816578 
L 118.005568 140.854898 
L 117.836719 139.384604 
L 117.668302 140.646903 
L 117.500316 141.053641 
L 117.332759 142.043363 
L 117.165629 141.517444 
L 116.998925 141.630821 
L 116.666788 141.012974 
L 116.501352 141.414076 
L 116.007554 140.387174 
L 115.68043 141.845011 
L 115.517487 141.376066 
L 115.354953 141.387037 
L 115.192827 141.596619 
L 115.031109 140.364278 
L 114.869796 141.578551 
L 114.708886 139.81055 
L 114.548379 140.906453 
L 114.388272 140.756301 
L 114.228565 140.987307 
L 114.069256 139.769399 
L 113.751825 141.872 
L 113.5937 139.234299 
L 113.435967 139.709496 
L 113.278624 139.766705 
L 113.12167 138.601982 
L 112.965104 140.848832 
L 112.653129 136.820665 
L 112.497717 138.985393 
L 112.188037 137.746267 
L 112.033766 140.300901 
L 111.726356 139.106151 
L 111.420446 134.523125 
L 111.26805 125.087292 
L 111.116024 95.350826 
L 110.81308 134.63061 
L 110.662159 135.403375 
L 110.511603 138.493007 
L 110.361412 137.406301 
L 110.062116 139.386239 
L 109.913008 138.658721 
L 109.76426 138.844654 
L 109.615869 140.711849 
L 109.467835 139.323971 
L 109.320155 141.278728 
L 109.172829 140.959323 
L 109.025856 139.754196 
L 108.879234 140.124318 
L 108.732962 138.456259 
L 108.587038 140.562631 
L 108.441462 139.693648 
L 108.296232 140.352734 
L 108.151347 140.17665 
L 108.006806 138.970275 
L 107.862607 140.041211 
L 107.71875 142.12377 
L 107.575233 140.935745 
L 107.432054 140.844371 
L 107.289214 141.797609 
L 107.146709 141.44134 
L 107.00454 141.418569 
L 106.862706 139.614296 
L 106.580034 139.87139 
L 106.439194 140.555731 
L 106.298684 141.910134 
L 106.018648 141.50319 
L 105.879119 140.784869 
L 105.601036 140.757911 
L 105.324242 141.409327 
L 105.186327 140.720489 
L 105.04873 141.711116 
L 104.911452 141.362204 
L 104.774491 140.50883 
L 104.501516 141.11747 
L 104.365499 140.692172 
L 104.229795 141.686749 
L 104.094403 141.158983 
L 103.959321 141.654508 
L 103.824549 141.097375 
L 103.690085 141.187753 
L 103.555929 139.78885 
L 103.422078 140.0387 
L 103.288533 141.905005 
L 103.155293 140.530995 
L 103.022355 142.068967 
L 102.889719 140.251616 
L 102.757385 141.064315 
L 102.493616 140.270224 
L 102.231038 141.806087 
L 102.100194 140.529344 
L 101.969645 141.422641 
L 101.83939 140.010121 
L 101.709428 141.700565 
L 101.579758 139.426828 
L 101.32129 141.378244 
L 101.19249 141.54943 
L 101.063979 141.407635 
L 100.807816 141.001743 
L 100.680163 141.385844 
L 100.425709 139.747651 
L 100.298906 141.022097 
L 100.172385 139.304016 
L 99.920183 140.742496 
L 99.669095 140.861109 
L 99.543967 140.33114 
L 99.419115 141.152459 
L 99.294538 141.161708 
L 99.170235 142.08855 
L 99.046205 141.705371 
L 98.798962 139.595315 
L 98.675746 141.42328 
L 98.430123 141.152608 
L 98.307714 141.150577 
L 98.185571 141.525558 
L 98.063695 141.252144 
L 97.942084 141.526136 
L 97.820737 140.381502 
L 97.578833 141.209686 
L 97.458275 141.003634 
L 97.337977 142.001259 
L 97.217939 141.769598 
L 97.098161 141.114458 
L 96.978641 141.463555 
L 96.859378 140.352728 
L 96.740373 140.905373 
L 96.503128 140.49509 
L 96.384888 140.666616 
L 96.266901 141.595869 
L 96.149167 140.924865 
L 96.031684 141.174471 
L 95.914453 142.056398 
L 95.68074 139.755354 
L 95.448022 141.551794 
L 95.332034 141.317164 
L 95.216292 141.006862 
L 95.100795 141.853413 
L 94.985544 140.956918 
L 94.870536 141.806898 
L 94.641249 140.740867 
L 94.526968 140.878369 
L 94.299128 141.756704 
L 94.185568 141.464396 
L 94.072246 140.678668 
L 93.846315 141.346906 
L 93.621329 140.101474 
L 93.509189 141.552023 
L 93.397283 141.210693 
L 93.28561 141.962193 
L 93.17417 141.75848 
L 92.951985 140.992478 
L 92.841238 141.687582 
L 92.730722 140.052875 
L 92.400543 141.789997 
L 92.18156 141.318553 
L 92.072407 140.633895 
L 91.854774 141.665614 
L 91.746294 141.387072 
L 91.638036 140.669612 
L 91.53 141.596474 
L 91.422186 140.609657 
L 91.314592 141.734915 
L 91.207218 140.975642 
L 91.100064 141.253767 
L 90.993128 140.188298 
L 90.77991 141.75095 
L 90.356069 141.149803 
L 90.250646 141.808528 
L 90.040439 141.748069 
L 89.726717 141.581005 
L 89.622564 140.986726 
L 89.518621 141.483848 
L 89.414887 141.104939 
L 89.208043 141.444721 
L 89.104932 141.164807 
L 89.002027 142.049744 
L 88.899328 141.721644 
L 88.796834 141.991106 
L 88.694545 140.958216 
L 88.59246 142.038325 
L 88.490578 140.259615 
L 88.388899 141.687258 
L 88.287422 140.212755 
L 87.883524 141.050138 
L 87.783049 141.160279 
L 87.582694 139.927403 
L 87.383128 141.887163 
L 87.28364 140.502005 
L 87.184347 141.650215 
L 87.08525 141.200647 
L 86.887638 141.517718 
L 86.789122 141.451247 
L 86.690799 140.123611 
L 86.592669 141.47456 
L 86.396982 140.122688 
L 86.202057 141.4538 
L 86.00789 141.089104 
L 85.911089 141.275913 
L 85.718051 139.964564 
L 85.621811 141.72842 
L 85.525759 140.900692 
L 85.334209 141.34991 
L 85.143398 140.807606 
L 85.048268 141.1531 
L 84.95332 140.705795 
L 84.858555 141.206328 
L 84.669571 140.550045 
L 84.48131 141.297932 
L 84.387449 140.614195 
L 84.293768 141.709356 
L 84.200265 140.935082 
L 84.106941 141.197967 
L 84.013795 140.823919 
L 83.920825 140.887008 
L 83.828033 140.64313 
L 83.642976 141.795897 
L 83.45862 141.266378 
L 83.366704 141.288013 
L 83.274962 140.665565 
L 83.183392 140.707875 
L 83.000772 141.782968 
L 82.909719 140.928383 
L 82.818838 141.673524 
L 82.728128 140.991189 
L 82.637588 141.118416 
L 82.457017 141.72134 
L 82.366986 141.786994 
L 82.187427 140.700808 
L 82.097899 141.883994 
L 82.008538 140.96832 
L 81.919344 141.829115 
L 81.830316 141.473937 
L 81.652756 142.048274 
L 81.564224 141.21773 
L 81.387651 141.681454 
L 81.299609 140.500572 
L 81.211731 140.723404 
L 81.124015 142.051795 
L 81.036461 141.739799 
L 80.861838 141.591588 
L 80.774767 141.283318 
L 80.687856 141.930737 
L 80.428082 141.080728 
L 80.341808 141.327943 
L 80.255692 141.990597 
L 80.169734 141.802636 
L 80.083932 141.993982 
L 79.827467 140.275944 
L 79.572401 141.843151 
L 79.403128 141.20066 
L 79.318722 141.879421 
L 79.234468 140.22674 
L 78.982622 141.161565 
L 78.898976 141.502415 
L 78.815481 140.699708 
L 78.732137 141.751107 
L 78.565898 140.599528 
L 78.483002 141.524716 
L 78.400255 141.215414 
L 78.235207 141.415413 
L 78.152904 141.785789 
L 78.070749 141.14105 
L 77.98874 141.345531 
L 77.825162 141.754756 
L 77.743591 141.195254 
L 77.662166 141.750317 
L 77.580886 141.600928 
L 77.49975 141.160188 
L 77.418758 141.284689 
L 77.33791 141.796466 
L 77.257206 141.754141 
L 77.176644 141.336874 
L 77.096225 141.759021 
L 77.015948 141.672286 
L 76.935813 141.449503 
L 76.775967 141.705148 
L 76.696256 140.388825 
L 76.537253 141.381813 
L 76.299794 142.06963 
L 76.220919 140.998978 
L 76.063583 141.771685 
L 75.906796 141.926197 
L 75.828608 141.476459 
L 75.750556 142.032344 
L 75.517215 141.138987 
L 75.362329 141.584106 
L 75.285088 141.40755 
L 75.20798 141.731258 
L 75.131006 141.48449 
L 75.054166 141.838388 
L 74.748128 140.86361 
L 74.595899 141.532577 
L 74.519981 141.161081 
L 74.293008 141.960884 
L 74.14234 140.275974 
L 73.992188 141.611111 
L 73.917304 141.241491 
L 73.842547 141.329415 
L 73.767919 141.141574 
L 73.693417 140.650134 
L 73.619043 140.693225 
L 73.544794 140.689145 
L 73.470672 141.127887 
L 73.396676 140.088139 
L 73.322805 140.933587 
L 73.24906 140.811943 
L 73.101943 141.274755 
L 73.028571 141.779731 
L 72.955324 141.488393 
L 72.882199 141.895491 
L 72.663565 141.299715 
L 72.590933 141.149589 
L 72.518422 140.613951 
L 72.373765 141.914933 
L 72.301619 141.874887 
L 72.229593 141.483563 
L 72.157688 141.540323 
L 72.085904 141.632344 
L 72.014239 141.545216 
L 71.942694 140.619666 
L 71.871268 141.686748 
L 71.799961 141.662017 
L 71.728773 142.027735 
L 71.657703 141.028049 
L 71.586752 141.448604 
L 71.515918 140.911423 
L 71.445202 141.730161 
L 71.374604 140.797734 
L 71.304122 141.392574 
L 71.233757 141.085155 
L 71.163508 141.068813 
L 71.093376 140.303954 
L 71.023359 141.98448 
L 70.953458 141.272052 
L 70.883672 141.27284 
L 70.814001 141.695932 
L 70.744444 141.51472 
L 70.675003 141.429935 
L 70.605675 141.79072 
L 70.467361 140.840058 
L 70.398373 140.814224 
L 70.329499 140.347427 
L 70.192089 140.674939 
L 70.123552 142.058143 
L 69.986814 140.751779 
L 69.918612 141.335028 
L 69.714672 138.666232 
L 69.646913 140.347285 
L 69.444294 133.154288 
L 69.309762 139.968391 
L 69.108777 141.455966 
L 69.041998 141.353891 
L 68.975327 140.932942 
L 68.908764 141.257537 
L 68.842307 140.922936 
L 68.775957 141.183621 
L 68.709714 140.816273 
L 68.643577 141.902833 
L 68.577546 141.379096 
L 68.511621 141.850748 
L 68.380088 139.954845 
L 68.314478 141.764557 
L 68.248974 140.989305 
L 68.183574 140.977131 
L 68.118279 140.167623 
L 68.053088 140.646092 
L 67.988 141.902471 
L 67.923016 141.119307 
L 67.858135 141.050257 
L 67.793358 141.503989 
L 67.664111 140.67596 
L 67.535273 141.578997 
L 67.471007 140.773306 
L 67.406843 141.103594 
L 67.34278 140.781851 
L 67.278818 141.790964 
L 67.214957 141.13174 
L 67.151197 141.203132 
L 66.960517 141.587322 
L 66.897157 140.90363 
L 66.833897 142.037326 
L 66.770735 140.93188 
L 66.707673 141.815745 
L 66.644709 141.587248 
L 66.519077 141.692862 
L 66.456409 141.588454 
L 66.393838 141.844298 
L 66.331365 141.765207 
L 66.20671 141.272863 
L 66.144528 141.810815 
L 66.020455 141.022348 
L 65.896766 141.923452 
L 65.835065 141.864711 
L 65.711951 141.297265 
L 65.589217 139.844577 
L 65.527992 141.971027 
L 65.466862 140.778417 
L 65.405826 140.673764 
L 65.344884 141.847981 
L 65.284036 141.232284 
L 65.16262 140.188599 
L 65.102052 141.496582 
L 65.041577 141.188636 
L 64.981195 141.23723 
L 64.920905 142.085441 
L 64.800603 140.99744 
L 64.620837 141.781334 
L 64.501451 141.304568 
L 64.441894 141.630885 
L 64.382427 141.518976 
L 64.323051 141.043886 
L 64.263766 141.070196 
L 64.086448 141.827348 
L 63.909935 140.855727 
L 63.792704 142.100191 
L 63.734222 141.732225 
L 63.675827 140.424065 
L 63.617521 141.298402 
L 63.559302 141.644615 
L 63.501171 141.069561 
L 63.443127 141.30657 
L 63.385171 141.612563 
L 63.327302 141.497504 
L 63.269519 140.360852 
L 63.211823 140.757596 
L 63.154213 140.730595 
L 63.039253 141.87826 
L 62.981902 141.243286 
L 62.924636 141.249846 
L 62.867456 141.28818 
L 62.810361 142.014551 
L 62.753351 141.611933 
L 62.696426 141.630156 
L 62.639586 140.735599 
L 62.58283 141.256484 
L 62.526159 141.579499 
L 62.469571 140.196097 
L 62.413068 140.309777 
L 62.356648 141.763575 
L 62.300312 141.471477 
L 62.24406 141.529818 
L 62.187891 141.419656 
L 62.075801 141.797111 
L 62.01988 140.569259 
L 61.964042 141.410808 
L 61.908286 141.81289 
L 61.852612 141.424755 
L 61.74151 141.09962 
L 61.686081 141.18059 
L 61.575468 142.023543 
L 61.520283 141.866776 
L 61.410155 140.28076 
L 61.355212 141.369848 
L 61.30035 140.033344 
L 61.245567 140.646116 
L 61.190865 141.817181 
L 61.136242 141.719237 
L 60.918545 140.630856 
L 60.864319 141.413022 
L 60.810172 140.255073 
L 60.756103 141.312896 
L 60.6482 140.235758 
L 60.486931 141.737061 
L 60.379806 140.670237 
L 60.32636 141.1188 
L 60.27299 139.857696 
L 60.219698 140.913304 
L 60.113343 141.884978 
L 59.954384 141.048159 
L 59.84879 141.93526 
L 59.796107 141.453638 
L 59.743499 141.521043 
L 59.690967 141.893124 
L 59.63851 141.580513 
L 59.481587 141.889746 
L 59.377344 141.36909 
L 59.325334 141.392782 
L 59.273397 141.761769 
L 59.221535 140.684197 
L 59.169747 141.471196 
L 59.118031 141.484953 
L 59.06639 141.203643 
L 59.014821 141.912982 
L 58.963326 141.565557 
L 58.911903 141.512697 
L 58.860553 141.696922 
L 58.809276 141.671837 
L 58.706938 141.514775 
L 58.655878 141.836027 
L 58.553972 140.670606 
L 58.452354 141.922772 
L 58.401651 141.690383 
L 58.35102 141.330039 
L 58.300461 141.874764 
L 58.249972 140.715674 
L 58.199553 141.436483 
L 58.149206 141.722544 
L 58.098928 141.255597 
L 57.998585 141.305754 
L 57.848594 141.879776 
L 57.798737 141.156921 
L 57.748949 141.485727 
L 57.69923 141.479812 
L 57.649581 140.905639 
L 57.6 142.165079 
L 57.6 142.165079 
" style="fill:none;stroke:#000000;stroke-linecap:square;"/>
   </g>
   <g id="patch_3">
    <path d="M 57.6 20.7 
L 342.7875 20.7 
" style="fill:none;"/>
   </g>
   <g id="patch_4">
    <path d="M 342.7875 142.2 
L 342.7875 20.7 
" style="fill:none;"/>
   </g>
   <g id="patch_5">
    <path d="M 57.6 142.2 
L 342.7875 142.2 
" style="fill:none;"/>
   </g>
   <g id="patch_6">
    <path d="M 57.6 142.2 
L 57.6 20.7 
" style="fill:none;"/>
   </g>
   <g id="matplotlib.axis_1">
    <g id="xtick_1">
     <g id="line2d_2">
      <defs>
       <path d="M 0 0 
L 0 -4 
" id="md747efb935" style="stroke:#000000;stroke-width:0.5;"/>
      </defs>
      <g>
       <use style="stroke:#000000;stroke-width:0.5;" x="57.6" xlink:href="#md747efb935" y="142.2"/>
      </g>
     </g>
     <g id="text_1">
      <!-- 2 -->
      <defs>
       <path d="M 19.1875 8.296875 
L 53.609375 8.296875 
L 53.609375 0 
L 7.328125 0 
L 7.328125 8.296875 
Q 12.9375 14.109375 22.625 23.890625 
Q 32.328125 33.6875 34.8125 36.53125 
Q 39.546875 41.84375 41.421875 45.53125 
Q 43.3125 49.21875 43.3125 52.78125 
Q 43.3125 58.59375 39.234375 62.25 
Q 35.15625 65.921875 28.609375 65.921875 
Q 23.96875 65.921875 18.8125 64.3125 
Q 13.671875 62.703125 7.8125 59.421875 
L 7.8125 69.390625 
Q 13.765625 71.78125 18.9375 73 
Q 24.125 74.21875 28.421875 74.21875 
Q 39.75 74.21875 46.484375 68.546875 
Q 53.21875 62.890625 53.21875 53.421875 
Q 53.21875 48.921875 51.53125 44.890625 
Q 49.859375 40.875 45.40625 35.40625 
Q 44.1875 33.984375 37.640625 27.21875 
Q 31.109375 20.453125 19.1875 8.296875 
" id="BitstreamVeraSans-Roman-32"/>
      </defs>
      <g transform="translate(54.41875 153.7984375)scale(0.1 -0.1)">
       <use xlink:href="#BitstreamVeraSans-Roman-32"/>
      </g>
     </g>
    </g>
    <g id="xtick_2">
     <g id="line2d_3">
      <g>
       <use style="stroke:#000000;stroke-width:0.5;" x="93.2484375" xlink:href="#md747efb935" y="142.2"/>
      </g>
     </g>
     <g id="text_2">
      <!-- 3 -->
      <defs>
       <path d="M 40.578125 39.3125 
Q 47.65625 37.796875 51.625 33 
Q 55.609375 28.21875 55.609375 21.1875 
Q 55.609375 10.40625 48.1875 4.484375 
Q 40.765625 -1.421875 27.09375 -1.421875 
Q 22.515625 -1.421875 17.65625 -0.515625 
Q 12.796875 0.390625 7.625 2.203125 
L 7.625 11.71875 
Q 11.71875 9.328125 16.59375 8.109375 
Q 21.484375 6.890625 26.8125 6.890625 
Q 36.078125 6.890625 40.9375 10.546875 
Q 45.796875 14.203125 45.796875 21.1875 
Q 45.796875 27.640625 41.28125 31.265625 
Q 36.765625 34.90625 28.71875 34.90625 
L 20.21875 34.90625 
L 20.21875 43.015625 
L 29.109375 43.015625 
Q 36.375 43.015625 40.234375 45.921875 
Q 44.09375 48.828125 44.09375 54.296875 
Q 44.09375 59.90625 40.109375 62.90625 
Q 36.140625 65.921875 28.71875 65.921875 
Q 24.65625 65.921875 20.015625 65.03125 
Q 15.375 64.15625 9.8125 62.3125 
L 9.8125 71.09375 
Q 15.4375 72.65625 20.34375 73.4375 
Q 25.25 74.21875 29.59375 74.21875 
Q 40.828125 74.21875 47.359375 69.109375 
Q 53.90625 64.015625 53.90625 55.328125 
Q 53.90625 49.265625 50.4375 45.09375 
Q 46.96875 40.921875 40.578125 39.3125 
" id="BitstreamVeraSans-Roman-33"/>
      </defs>
      <g transform="translate(90.0671875 153.7984375)scale(0.1 -0.1)">
       <use xlink:href="#BitstreamVeraSans-Roman-33"/>
      </g>
     </g>
    </g>
    <g id="xtick_3">
     <g id="line2d_4">
      <g>
       <use style="stroke:#000000;stroke-width:0.5;" x="128.896875" xlink:href="#md747efb935" y="142.2"/>
      </g>
     </g>
     <g id="text_3">
      <!-- 4 -->
      <defs>
       <path d="M 37.796875 64.3125 
L 12.890625 25.390625 
L 37.796875 25.390625 
z
M 35.203125 72.90625 
L 47.609375 72.90625 
L 47.609375 25.390625 
L 58.015625 25.390625 
L 58.015625 17.1875 
L 47.609375 17.1875 
L 47.609375 0 
L 37.796875 0 
L 37.796875 17.1875 
L 4.890625 17.1875 
L 4.890625 26.703125 
z
" id="BitstreamVeraSans-Roman-34"/>
      </defs>
      <g transform="translate(125.715625 153.7984375)scale(0.1 -0.1)">
       <use xlink:href="#BitstreamVeraSans-Roman-34"/>
      </g>
     </g>
    </g>
    <g id="xtick_4">
     <g id="line2d_5">
      <g>
       <use style="stroke:#000000;stroke-width:0.5;" x="164.5453125" xlink:href="#md747efb935" y="142.2"/>
      </g>
     </g>
     <g id="text_4">
      <!-- 5 -->
      <defs>
       <path d="M 10.796875 72.90625 
L 49.515625 72.90625 
L 49.515625 64.59375 
L 19.828125 64.59375 
L 19.828125 46.734375 
Q 21.96875 47.46875 24.109375 47.828125 
Q 26.265625 48.1875 28.421875 48.1875 
Q 40.625 48.1875 47.75 41.5 
Q 54.890625 34.8125 54.890625 23.390625 
Q 54.890625 11.625 47.5625 5.09375 
Q 40.234375 -1.421875 26.90625 -1.421875 
Q 22.3125 -1.421875 17.546875 -0.640625 
Q 12.796875 0.140625 7.71875 1.703125 
L 7.71875 11.625 
Q 12.109375 9.234375 16.796875 8.0625 
Q 21.484375 6.890625 26.703125 6.890625 
Q 35.15625 6.890625 40.078125 11.328125 
Q 45.015625 15.765625 45.015625 23.390625 
Q 45.015625 31 40.078125 35.4375 
Q 35.15625 39.890625 26.703125 39.890625 
Q 22.75 39.890625 18.8125 39.015625 
Q 14.890625 38.140625 10.796875 36.28125 
z
" id="BitstreamVeraSans-Roman-35"/>
      </defs>
      <g transform="translate(161.3640625 153.7984375)scale(0.1 -0.1)">
       <use xlink:href="#BitstreamVeraSans-Roman-35"/>
      </g>
     </g>
    </g>
    <g id="xtick_5">
     <g id="line2d_6">
      <g>
       <use style="stroke:#000000;stroke-width:0.5;" x="200.19375" xlink:href="#md747efb935" y="142.2"/>
      </g>
     </g>
     <g id="text_5">
      <!-- 6 -->
      <defs>
       <path d="M 33.015625 40.375 
Q 26.375 40.375 22.484375 35.828125 
Q 18.609375 31.296875 18.609375 23.390625 
Q 18.609375 15.53125 22.484375 10.953125 
Q 26.375 6.390625 33.015625 6.390625 
Q 39.65625 6.390625 43.53125 10.953125 
Q 47.40625 15.53125 47.40625 23.390625 
Q 47.40625 31.296875 43.53125 35.828125 
Q 39.65625 40.375 33.015625 40.375 
M 52.59375 71.296875 
L 52.59375 62.3125 
Q 48.875 64.0625 45.09375 64.984375 
Q 41.3125 65.921875 37.59375 65.921875 
Q 27.828125 65.921875 22.671875 59.328125 
Q 17.53125 52.734375 16.796875 39.40625 
Q 19.671875 43.65625 24.015625 45.921875 
Q 28.375 48.1875 33.59375 48.1875 
Q 44.578125 48.1875 50.953125 41.515625 
Q 57.328125 34.859375 57.328125 23.390625 
Q 57.328125 12.15625 50.6875 5.359375 
Q 44.046875 -1.421875 33.015625 -1.421875 
Q 20.359375 -1.421875 13.671875 8.265625 
Q 6.984375 17.96875 6.984375 36.375 
Q 6.984375 53.65625 15.1875 63.9375 
Q 23.390625 74.21875 37.203125 74.21875 
Q 40.921875 74.21875 44.703125 73.484375 
Q 48.484375 72.75 52.59375 71.296875 
" id="BitstreamVeraSans-Roman-36"/>
      </defs>
      <g transform="translate(197.0125 153.7984375)scale(0.1 -0.1)">
       <use xlink:href="#BitstreamVeraSans-Roman-36"/>
      </g>
     </g>
    </g>
    <g id="xtick_6">
     <g id="line2d_7">
      <g>
       <use style="stroke:#000000;stroke-width:0.5;" x="235.8421875" xlink:href="#md747efb935" y="142.2"/>
      </g>
     </g>
     <g id="text_6">
      <!-- 7 -->
      <defs>
       <path d="M 8.203125 72.90625 
L 55.078125 72.90625 
L 55.078125 68.703125 
L 28.609375 0 
L 18.3125 0 
L 43.21875 64.59375 
L 8.203125 64.59375 
z
" id="BitstreamVeraSans-Roman-37"/>
      </defs>
      <g transform="translate(232.6609375 153.7984375)scale(0.1 -0.1)">
       <use xlink:href="#BitstreamVeraSans-Roman-37"/>
      </g>
     </g>
    </g>
    <g id="xtick_7">
     <g id="line2d_8">
      <g>
       <use style="stroke:#000000;stroke-width:0.5;" x="271.490625" xlink:href="#md747efb935" y="142.2"/>
      </g>
     </g>
     <g id="text_7">
      <!-- 8 -->
      <defs>
       <path d="M 31.78125 34.625 
Q 24.75 34.625 20.71875 30.859375 
Q 16.703125 27.09375 16.703125 20.515625 
Q 16.703125 13.921875 20.71875 10.15625 
Q 24.75 6.390625 31.78125 6.390625 
Q 38.8125 6.390625 42.859375 10.171875 
Q 46.921875 13.96875 46.921875 20.515625 
Q 46.921875 27.09375 42.890625 30.859375 
Q 38.875 34.625 31.78125 34.625 
M 21.921875 38.8125 
Q 15.578125 40.375 12.03125 44.71875 
Q 8.5 49.078125 8.5 55.328125 
Q 8.5 64.0625 14.71875 69.140625 
Q 20.953125 74.21875 31.78125 74.21875 
Q 42.671875 74.21875 48.875 69.140625 
Q 55.078125 64.0625 55.078125 55.328125 
Q 55.078125 49.078125 51.53125 44.71875 
Q 48 40.375 41.703125 38.8125 
Q 48.828125 37.15625 52.796875 32.3125 
Q 56.78125 27.484375 56.78125 20.515625 
Q 56.78125 9.90625 50.3125 4.234375 
Q 43.84375 -1.421875 31.78125 -1.421875 
Q 19.734375 -1.421875 13.25 4.234375 
Q 6.78125 9.90625 6.78125 20.515625 
Q 6.78125 27.484375 10.78125 32.3125 
Q 14.796875 37.15625 21.921875 38.8125 
M 18.3125 54.390625 
Q 18.3125 48.734375 21.84375 45.5625 
Q 25.390625 42.390625 31.78125 42.390625 
Q 38.140625 42.390625 41.71875 45.5625 
Q 45.3125 48.734375 45.3125 54.390625 
Q 45.3125 60.0625 41.71875 63.234375 
Q 38.140625 66.40625 31.78125 66.40625 
Q 25.390625 66.40625 21.84375 63.234375 
Q 18.3125 60.0625 18.3125 54.390625 
" id="BitstreamVeraSans-Roman-38"/>
      </defs>
      <g transform="translate(268.309375 153.7984375)scale(0.1 -0.1)">
       <use xlink:href="#BitstreamVeraSans-Roman-38"/>
      </g>
     </g>
    </g>
    <g id="xtick_8">
     <g id="line2d_9">
      <g>
       <use style="stroke:#000000;stroke-width:0.5;" x="307.1390625" xlink:href="#md747efb935" y="142.2"/>
      </g>
     </g>
     <g id="text_8">
      <!-- 9 -->
      <defs>
       <path d="M 10.984375 1.515625 
L 10.984375 10.5 
Q 14.703125 8.734375 18.5 7.8125 
Q 22.3125 6.890625 25.984375 6.890625 
Q 35.75 6.890625 40.890625 13.453125 
Q 46.046875 20.015625 46.78125 33.40625 
Q 43.953125 29.203125 39.59375 26.953125 
Q 35.25 24.703125 29.984375 24.703125 
Q 19.046875 24.703125 12.671875 31.3125 
Q 6.296875 37.9375 6.296875 49.421875 
Q 6.296875 60.640625 12.9375 67.421875 
Q 19.578125 74.21875 30.609375 74.21875 
Q 43.265625 74.21875 49.921875 64.515625 
Q 56.59375 54.828125 56.59375 36.375 
Q 56.59375 19.140625 48.40625 8.859375 
Q 40.234375 -1.421875 26.421875 -1.421875 
Q 22.703125 -1.421875 18.890625 -0.6875 
Q 15.09375 0.046875 10.984375 1.515625 
M 30.609375 32.421875 
Q 37.25 32.421875 41.125 36.953125 
Q 45.015625 41.5 45.015625 49.421875 
Q 45.015625 57.28125 41.125 61.84375 
Q 37.25 66.40625 30.609375 66.40625 
Q 23.96875 66.40625 20.09375 61.84375 
Q 16.21875 57.28125 16.21875 49.421875 
Q 16.21875 41.5 20.09375 36.953125 
Q 23.96875 32.421875 30.609375 32.421875 
" id="BitstreamVeraSans-Roman-39"/>
      </defs>
      <g transform="translate(303.9578125 153.7984375)scale(0.1 -0.1)">
       <use xlink:href="#BitstreamVeraSans-Roman-39"/>
      </g>
     </g>
    </g>
    <g id="xtick_9">
     <g id="line2d_10">
      <g>
       <use style="stroke:#000000;stroke-width:0.5;" x="342.7875" xlink:href="#md747efb935" y="142.2"/>
      </g>
     </g>
     <g id="text_9">
      <!-- 10 -->
      <defs>
       <path d="M 31.78125 66.40625 
Q 24.171875 66.40625 20.328125 58.90625 
Q 16.5 51.421875 16.5 36.375 
Q 16.5 21.390625 20.328125 13.890625 
Q 24.171875 6.390625 31.78125 6.390625 
Q 39.453125 6.390625 43.28125 13.890625 
Q 47.125 21.390625 47.125 36.375 
Q 47.125 51.421875 43.28125 58.90625 
Q 39.453125 66.40625 31.78125 66.40625 
M 31.78125 74.21875 
Q 44.046875 74.21875 50.515625 64.515625 
Q 56.984375 54.828125 56.984375 36.375 
Q 56.984375 17.96875 50.515625 8.265625 
Q 44.046875 -1.421875 31.78125 -1.421875 
Q 19.53125 -1.421875 13.0625 8.265625 
Q 6.59375 17.96875 6.59375 36.375 
Q 6.59375 54.828125 13.0625 64.515625 
Q 19.53125 74.21875 31.78125 74.21875 
" id="BitstreamVeraSans-Roman-30"/>
       <path d="M 12.40625 8.296875 
L 28.515625 8.296875 
L 28.515625 63.921875 
L 10.984375 60.40625 
L 10.984375 69.390625 
L 28.421875 72.90625 
L 38.28125 72.90625 
L 38.28125 8.296875 
L 54.390625 8.296875 
L 54.390625 0 
L 12.40625 0 
z
" id="BitstreamVeraSans-Roman-31"/>
      </defs>
      <g transform="translate(336.425 153.7984375)scale(0.1 -0.1)">
       <use xlink:href="#BitstreamVeraSans-Roman-31"/>
       <use x="63.623046875" xlink:href="#BitstreamVeraSans-Roman-30"/>
      </g>
     </g>
    </g>
    <g id="text_10">
     <!-- Period (days) -->
     <defs>
      <path id="BitstreamVeraSans-Roman-20"/>
      <path d="M 8.015625 75.875 
L 15.828125 75.875 
Q 23.140625 64.359375 26.78125 53.3125 
Q 30.421875 42.28125 30.421875 31.390625 
Q 30.421875 20.453125 26.78125 9.375 
Q 23.140625 -1.703125 15.828125 -13.1875 
L 8.015625 -13.1875 
Q 14.5 -2 17.703125 9.0625 
Q 20.90625 20.125 20.90625 31.390625 
Q 20.90625 42.671875 17.703125 53.65625 
Q 14.5 64.65625 8.015625 75.875 
" id="BitstreamVeraSans-Roman-29"/>
      <path d="M 31 75.875 
Q 24.46875 64.65625 21.28125 53.65625 
Q 18.109375 42.671875 18.109375 31.390625 
Q 18.109375 20.125 21.3125 9.0625 
Q 24.515625 -2 31 -13.1875 
L 23.1875 -13.1875 
Q 15.875 -1.703125 12.234375 9.375 
Q 8.59375 20.453125 8.59375 31.390625 
Q 8.59375 42.28125 12.203125 53.3125 
Q 15.828125 64.359375 23.1875 75.875 
z
" id="BitstreamVeraSans-Roman-28"/>
      <path d="M 30.609375 48.390625 
Q 23.390625 48.390625 19.1875 42.75 
Q 14.984375 37.109375 14.984375 27.296875 
Q 14.984375 17.484375 19.15625 11.84375 
Q 23.34375 6.203125 30.609375 6.203125 
Q 37.796875 6.203125 41.984375 11.859375 
Q 46.1875 17.53125 46.1875 27.296875 
Q 46.1875 37.015625 41.984375 42.703125 
Q 37.796875 48.390625 30.609375 48.390625 
M 30.609375 56 
Q 42.328125 56 49.015625 48.375 
Q 55.71875 40.765625 55.71875 27.296875 
Q 55.71875 13.875 49.015625 6.21875 
Q 42.328125 -1.421875 30.609375 -1.421875 
Q 18.84375 -1.421875 12.171875 6.21875 
Q 5.515625 13.875 5.515625 27.296875 
Q 5.515625 40.765625 12.171875 48.375 
Q 18.84375 56 30.609375 56 
" id="BitstreamVeraSans-Roman-6f"/>
      <path d="M 19.671875 64.796875 
L 19.671875 37.40625 
L 32.078125 37.40625 
Q 38.96875 37.40625 42.71875 40.96875 
Q 46.484375 44.53125 46.484375 51.125 
Q 46.484375 57.671875 42.71875 61.234375 
Q 38.96875 64.796875 32.078125 64.796875 
z
M 9.8125 72.90625 
L 32.078125 72.90625 
Q 44.34375 72.90625 50.609375 67.359375 
Q 56.890625 61.8125 56.890625 51.125 
Q 56.890625 40.328125 50.609375 34.8125 
Q 44.34375 29.296875 32.078125 29.296875 
L 19.671875 29.296875 
L 19.671875 0 
L 9.8125 0 
z
" id="BitstreamVeraSans-Roman-50"/>
      <path d="M 9.421875 54.6875 
L 18.40625 54.6875 
L 18.40625 0 
L 9.421875 0 
z
M 9.421875 75.984375 
L 18.40625 75.984375 
L 18.40625 64.59375 
L 9.421875 64.59375 
z
" id="BitstreamVeraSans-Roman-69"/>
      <path d="M 32.171875 -5.078125 
Q 28.375 -14.84375 24.75 -17.8125 
Q 21.140625 -20.796875 15.09375 -20.796875 
L 7.90625 -20.796875 
L 7.90625 -13.28125 
L 13.1875 -13.28125 
Q 16.890625 -13.28125 18.9375 -11.515625 
Q 21 -9.765625 23.484375 -3.21875 
L 25.09375 0.875 
L 2.984375 54.6875 
L 12.5 54.6875 
L 29.59375 11.921875 
L 46.6875 54.6875 
L 56.203125 54.6875 
z
" id="BitstreamVeraSans-Roman-79"/>
      <path d="M 56.203125 29.59375 
L 56.203125 25.203125 
L 14.890625 25.203125 
Q 15.484375 15.921875 20.484375 11.0625 
Q 25.484375 6.203125 34.421875 6.203125 
Q 39.59375 6.203125 44.453125 7.46875 
Q 49.3125 8.734375 54.109375 11.28125 
L 54.109375 2.78125 
Q 49.265625 0.734375 44.1875 -0.34375 
Q 39.109375 -1.421875 33.890625 -1.421875 
Q 20.796875 -1.421875 13.15625 6.1875 
Q 5.515625 13.8125 5.515625 26.8125 
Q 5.515625 40.234375 12.765625 48.109375 
Q 20.015625 56 32.328125 56 
Q 43.359375 56 49.78125 48.890625 
Q 56.203125 41.796875 56.203125 29.59375 
M 47.21875 32.234375 
Q 47.125 39.59375 43.09375 43.984375 
Q 39.0625 48.390625 32.421875 48.390625 
Q 24.90625 48.390625 20.390625 44.140625 
Q 15.875 39.890625 15.1875 32.171875 
z
" id="BitstreamVeraSans-Roman-65"/>
      <path d="M 45.40625 46.390625 
L 45.40625 75.984375 
L 54.390625 75.984375 
L 54.390625 0 
L 45.40625 0 
L 45.40625 8.203125 
Q 42.578125 3.328125 38.25 0.953125 
Q 33.9375 -1.421875 27.875 -1.421875 
Q 17.96875 -1.421875 11.734375 6.484375 
Q 5.515625 14.40625 5.515625 27.296875 
Q 5.515625 40.1875 11.734375 48.09375 
Q 17.96875 56 27.875 56 
Q 33.9375 56 38.25 53.625 
Q 42.578125 51.265625 45.40625 46.390625 
M 14.796875 27.296875 
Q 14.796875 17.390625 18.875 11.75 
Q 22.953125 6.109375 30.078125 6.109375 
Q 37.203125 6.109375 41.296875 11.75 
Q 45.40625 17.390625 45.40625 27.296875 
Q 45.40625 37.203125 41.296875 42.84375 
Q 37.203125 48.484375 30.078125 48.484375 
Q 22.953125 48.484375 18.875 42.84375 
Q 14.796875 37.203125 14.796875 27.296875 
" id="BitstreamVeraSans-Roman-64"/>
      <path d="M 34.28125 27.484375 
Q 23.390625 27.484375 19.1875 25 
Q 14.984375 22.515625 14.984375 16.5 
Q 14.984375 11.71875 18.140625 8.90625 
Q 21.296875 6.109375 26.703125 6.109375 
Q 34.1875 6.109375 38.703125 11.40625 
Q 43.21875 16.703125 43.21875 25.484375 
L 43.21875 27.484375 
z
M 52.203125 31.203125 
L 52.203125 0 
L 43.21875 0 
L 43.21875 8.296875 
Q 40.140625 3.328125 35.546875 0.953125 
Q 30.953125 -1.421875 24.3125 -1.421875 
Q 15.921875 -1.421875 10.953125 3.296875 
Q 6 8.015625 6 15.921875 
Q 6 25.140625 12.171875 29.828125 
Q 18.359375 34.515625 30.609375 34.515625 
L 43.21875 34.515625 
L 43.21875 35.40625 
Q 43.21875 41.609375 39.140625 45 
Q 35.0625 48.390625 27.6875 48.390625 
Q 23 48.390625 18.546875 47.265625 
Q 14.109375 46.140625 10.015625 43.890625 
L 10.015625 52.203125 
Q 14.9375 54.109375 19.578125 55.046875 
Q 24.21875 56 28.609375 56 
Q 40.484375 56 46.34375 49.84375 
Q 52.203125 43.703125 52.203125 31.203125 
" id="BitstreamVeraSans-Roman-61"/>
      <path d="M 41.109375 46.296875 
Q 39.59375 47.171875 37.8125 47.578125 
Q 36.03125 48 33.890625 48 
Q 26.265625 48 22.1875 43.046875 
Q 18.109375 38.09375 18.109375 28.8125 
L 18.109375 0 
L 9.078125 0 
L 9.078125 54.6875 
L 18.109375 54.6875 
L 18.109375 46.1875 
Q 20.953125 51.171875 25.484375 53.578125 
Q 30.03125 56 36.53125 56 
Q 37.453125 56 38.578125 55.875 
Q 39.703125 55.765625 41.0625 55.515625 
z
" id="BitstreamVeraSans-Roman-72"/>
      <path d="M 44.28125 53.078125 
L 44.28125 44.578125 
Q 40.484375 46.53125 36.375 47.5 
Q 32.28125 48.484375 27.875 48.484375 
Q 21.1875 48.484375 17.84375 46.4375 
Q 14.5 44.390625 14.5 40.28125 
Q 14.5 37.15625 16.890625 35.375 
Q 19.28125 33.59375 26.515625 31.984375 
L 29.59375 31.296875 
Q 39.15625 29.25 43.1875 25.515625 
Q 47.21875 21.78125 47.21875 15.09375 
Q 47.21875 7.46875 41.1875 3.015625 
Q 35.15625 -1.421875 24.609375 -1.421875 
Q 20.21875 -1.421875 15.453125 -0.5625 
Q 10.6875 0.296875 5.421875 2 
L 5.421875 11.28125 
Q 10.40625 8.6875 15.234375 7.390625 
Q 20.0625 6.109375 24.8125 6.109375 
Q 31.15625 6.109375 34.5625 8.28125 
Q 37.984375 10.453125 37.984375 14.40625 
Q 37.984375 18.0625 35.515625 20.015625 
Q 33.0625 21.96875 24.703125 23.78125 
L 21.578125 24.515625 
Q 13.234375 26.265625 9.515625 29.90625 
Q 5.8125 33.546875 5.8125 39.890625 
Q 5.8125 47.609375 11.28125 51.796875 
Q 16.75 56 26.8125 56 
Q 31.78125 56 36.171875 55.265625 
Q 40.578125 54.546875 44.28125 53.078125 
" id="BitstreamVeraSans-Roman-73"/>
     </defs>
     <g transform="translate(167.13359375 168.4765625)scale(0.1 -0.1)">
      <use xlink:href="#BitstreamVeraSans-Roman-50"/>
      <use x="60.255859375" xlink:href="#BitstreamVeraSans-Roman-65"/>
      <use x="121.779296875" xlink:href="#BitstreamVeraSans-Roman-72"/>
      <use x="162.892578125" xlink:href="#BitstreamVeraSans-Roman-69"/>
      <use x="190.67578125" xlink:href="#BitstreamVeraSans-Roman-6f"/>
      <use x="251.857421875" xlink:href="#BitstreamVeraSans-Roman-64"/>
      <use x="315.333984375" xlink:href="#BitstreamVeraSans-Roman-20"/>
      <use x="347.12109375" xlink:href="#BitstreamVeraSans-Roman-28"/>
      <use x="386.134765625" xlink:href="#BitstreamVeraSans-Roman-64"/>
      <use x="449.611328125" xlink:href="#BitstreamVeraSans-Roman-61"/>
      <use x="510.890625" xlink:href="#BitstreamVeraSans-Roman-79"/>
      <use x="570.0703125" xlink:href="#BitstreamVeraSans-Roman-73"/>
      <use x="622.169921875" xlink:href="#BitstreamVeraSans-Roman-29"/>
     </g>
    </g>
   </g>
   <g id="matplotlib.axis_2">
    <g id="ytick_1">
     <g id="line2d_11">
      <defs>
       <path d="M 0 0 
L 4 0 
" id="m934a04457c" style="stroke:#000000;stroke-width:0.5;"/>
      </defs>
      <g>
       <use style="stroke:#000000;stroke-width:0.5;" x="57.6" xlink:href="#m934a04457c" y="142.2"/>
      </g>
     </g>
     <g id="text_11">
      <!-- 0 -->
      <g transform="translate(47.2375 144.959375)scale(0.1 -0.1)">
       <use xlink:href="#BitstreamVeraSans-Roman-30"/>
      </g>
     </g>
    </g>
    <g id="ytick_2">
     <g id="line2d_12">
      <g>
       <use style="stroke:#000000;stroke-width:0.5;" x="57.6" xlink:href="#m934a04457c" y="121.95"/>
      </g>
     </g>
     <g id="text_12">
      <!-- 1,000 -->
      <defs>
       <path d="M 11.71875 12.40625 
L 22.015625 12.40625 
L 22.015625 4 
L 14.015625 -11.625 
L 7.71875 -11.625 
L 11.71875 4 
z
" id="BitstreamVeraSans-Roman-2c"/>
      </defs>
      <g transform="translate(24.971875 124.709375)scale(0.1 -0.1)">
       <use xlink:href="#BitstreamVeraSans-Roman-31"/>
       <use x="63.623046875" xlink:href="#BitstreamVeraSans-Roman-2c"/>
       <use x="95.41015625" xlink:href="#BitstreamVeraSans-Roman-30"/>
       <use x="159.033203125" xlink:href="#BitstreamVeraSans-Roman-30"/>
       <use x="222.65625" xlink:href="#BitstreamVeraSans-Roman-30"/>
      </g>
     </g>
    </g>
    <g id="ytick_3">
     <g id="line2d_13">
      <g>
       <use style="stroke:#000000;stroke-width:0.5;" x="57.6" xlink:href="#m934a04457c" y="101.7"/>
      </g>
     </g>
     <g id="text_13">
      <!-- 2,000 -->
      <g transform="translate(24.971875 104.459375)scale(0.1 -0.1)">
       <use xlink:href="#BitstreamVeraSans-Roman-32"/>
       <use x="63.623046875" xlink:href="#BitstreamVeraSans-Roman-2c"/>
       <use x="95.41015625" xlink:href="#BitstreamVeraSans-Roman-30"/>
       <use x="159.033203125" xlink:href="#BitstreamVeraSans-Roman-30"/>
       <use x="222.65625" xlink:href="#BitstreamVeraSans-Roman-30"/>
      </g>
     </g>
    </g>
    <g id="ytick_4">
     <g id="line2d_14">
      <g>
       <use style="stroke:#000000;stroke-width:0.5;" x="57.6" xlink:href="#m934a04457c" y="81.45"/>
      </g>
     </g>
     <g id="text_14">
      <!-- 3,000 -->
      <g transform="translate(24.971875 84.209375)scale(0.1 -0.1)">
       <use xlink:href="#BitstreamVeraSans-Roman-33"/>
       <use x="63.623046875" xlink:href="#BitstreamVeraSans-Roman-2c"/>
       <use x="95.41015625" xlink:href="#BitstreamVeraSans-Roman-30"/>
       <use x="159.033203125" xlink:href="#BitstreamVeraSans-Roman-30"/>
       <use x="222.65625" xlink:href="#BitstreamVeraSans-Roman-30"/>
      </g>
     </g>
    </g>
    <g id="ytick_5">
     <g id="line2d_15">
      <g>
       <use style="stroke:#000000;stroke-width:0.5;" x="57.6" xlink:href="#m934a04457c" y="61.2"/>
      </g>
     </g>
     <g id="text_15">
      <!-- 4,000 -->
      <g transform="translate(24.971875 63.959375)scale(0.1 -0.1)">
       <use xlink:href="#BitstreamVeraSans-Roman-34"/>
       <use x="63.623046875" xlink:href="#BitstreamVeraSans-Roman-2c"/>
       <use x="95.41015625" xlink:href="#BitstreamVeraSans-Roman-30"/>
       <use x="159.033203125" xlink:href="#BitstreamVeraSans-Roman-30"/>
       <use x="222.65625" xlink:href="#BitstreamVeraSans-Roman-30"/>
      </g>
     </g>
    </g>
    <g id="ytick_6">
     <g id="line2d_16">
      <g>
       <use style="stroke:#000000;stroke-width:0.5;" x="57.6" xlink:href="#m934a04457c" y="40.95"/>
      </g>
     </g>
     <g id="text_16">
      <!-- 5,000 -->
      <g transform="translate(24.971875 43.709375)scale(0.1 -0.1)">
       <use xlink:href="#BitstreamVeraSans-Roman-35"/>
       <use x="63.623046875" xlink:href="#BitstreamVeraSans-Roman-2c"/>
       <use x="95.41015625" xlink:href="#BitstreamVeraSans-Roman-30"/>
       <use x="159.033203125" xlink:href="#BitstreamVeraSans-Roman-30"/>
       <use x="222.65625" xlink:href="#BitstreamVeraSans-Roman-30"/>
      </g>
     </g>
    </g>
    <g id="ytick_7">
     <g id="line2d_17">
      <g>
       <use style="stroke:#000000;stroke-width:0.5;" x="57.6" xlink:href="#m934a04457c" y="20.7"/>
      </g>
     </g>
     <g id="text_17">
      <!-- 6,000 -->
      <g transform="translate(24.971875 23.459375)scale(0.1 -0.1)">
       <use xlink:href="#BitstreamVeraSans-Roman-36"/>
       <use x="63.623046875" xlink:href="#BitstreamVeraSans-Roman-2c"/>
       <use x="95.41015625" xlink:href="#BitstreamVeraSans-Roman-30"/>
       <use x="159.033203125" xlink:href="#BitstreamVeraSans-Roman-30"/>
       <use x="222.65625" xlink:href="#BitstreamVeraSans-Roman-30"/>
      </g>
     </g>
    </g>
    <g id="text_18">
     <!-- Linear power spectrum [V RMS] -->
     <defs>
      <path d="M 8.59375 75.984375 
L 29.296875 75.984375 
L 29.296875 69 
L 17.578125 69 
L 17.578125 -6.203125 
L 29.296875 -6.203125 
L 29.296875 -13.1875 
L 8.59375 -13.1875 
z
" id="BitstreamVeraSans-Roman-5b"/>
      <path d="M 9.8125 72.90625 
L 24.515625 72.90625 
L 43.109375 23.296875 
L 61.8125 72.90625 
L 76.515625 72.90625 
L 76.515625 0 
L 66.890625 0 
L 66.890625 64.015625 
L 48.09375 14.015625 
L 38.1875 14.015625 
L 19.390625 64.015625 
L 19.390625 0 
L 9.8125 0 
z
" id="BitstreamVeraSans-Roman-4d"/>
      <path d="M 9.8125 72.90625 
L 19.671875 72.90625 
L 19.671875 8.296875 
L 55.171875 8.296875 
L 55.171875 0 
L 9.8125 0 
z
" id="BitstreamVeraSans-Roman-4c"/>
      <path d="M 54.890625 33.015625 
L 54.890625 0 
L 45.90625 0 
L 45.90625 32.71875 
Q 45.90625 40.484375 42.875 44.328125 
Q 39.84375 48.1875 33.796875 48.1875 
Q 26.515625 48.1875 22.3125 43.546875 
Q 18.109375 38.921875 18.109375 30.90625 
L 18.109375 0 
L 9.078125 0 
L 9.078125 54.6875 
L 18.109375 54.6875 
L 18.109375 46.1875 
Q 21.34375 51.125 25.703125 53.5625 
Q 30.078125 56 35.796875 56 
Q 45.21875 56 50.046875 50.171875 
Q 54.890625 44.34375 54.890625 33.015625 
" id="BitstreamVeraSans-Roman-6e"/>
      <path d="M 52 44.1875 
Q 55.375 50.25 60.0625 53.125 
Q 64.75 56 71.09375 56 
Q 79.640625 56 84.28125 50.015625 
Q 88.921875 44.046875 88.921875 33.015625 
L 88.921875 0 
L 79.890625 0 
L 79.890625 32.71875 
Q 79.890625 40.578125 77.09375 44.375 
Q 74.3125 48.1875 68.609375 48.1875 
Q 61.625 48.1875 57.5625 43.546875 
Q 53.515625 38.921875 53.515625 30.90625 
L 53.515625 0 
L 44.484375 0 
L 44.484375 32.71875 
Q 44.484375 40.625 41.703125 44.40625 
Q 38.921875 48.1875 33.109375 48.1875 
Q 26.21875 48.1875 22.15625 43.53125 
Q 18.109375 38.875 18.109375 30.90625 
L 18.109375 0 
L 9.078125 0 
L 9.078125 54.6875 
L 18.109375 54.6875 
L 18.109375 46.1875 
Q 21.1875 51.21875 25.484375 53.609375 
Q 29.78125 56 35.6875 56 
Q 41.65625 56 45.828125 52.96875 
Q 50 49.953125 52 44.1875 
" id="BitstreamVeraSans-Roman-6d"/>
      <path d="M 30.421875 75.984375 
L 30.421875 -13.1875 
L 9.71875 -13.1875 
L 9.71875 -6.203125 
L 21.390625 -6.203125 
L 21.390625 69 
L 9.71875 69 
L 9.71875 75.984375 
z
" id="BitstreamVeraSans-Roman-5d"/>
      <path d="M 44.390625 34.1875 
Q 47.5625 33.109375 50.5625 29.59375 
Q 53.5625 26.078125 56.59375 19.921875 
L 66.609375 0 
L 56 0 
L 46.6875 18.703125 
Q 43.0625 26.03125 39.671875 28.421875 
Q 36.28125 30.8125 30.421875 30.8125 
L 19.671875 30.8125 
L 19.671875 0 
L 9.8125 0 
L 9.8125 72.90625 
L 32.078125 72.90625 
Q 44.578125 72.90625 50.734375 67.671875 
Q 56.890625 62.453125 56.890625 51.90625 
Q 56.890625 45.015625 53.6875 40.46875 
Q 50.484375 35.9375 44.390625 34.1875 
M 19.671875 64.796875 
L 19.671875 38.921875 
L 32.078125 38.921875 
Q 39.203125 38.921875 42.84375 42.21875 
Q 46.484375 45.515625 46.484375 51.90625 
Q 46.484375 58.296875 42.84375 61.546875 
Q 39.203125 64.796875 32.078125 64.796875 
z
" id="BitstreamVeraSans-Roman-52"/>
      <path d="M 53.515625 70.515625 
L 53.515625 60.890625 
Q 47.90625 63.578125 42.921875 64.890625 
Q 37.9375 66.21875 33.296875 66.21875 
Q 25.25 66.21875 20.875 63.09375 
Q 16.5 59.96875 16.5 54.203125 
Q 16.5 49.359375 19.40625 46.890625 
Q 22.3125 44.4375 30.421875 42.921875 
L 36.375 41.703125 
Q 47.40625 39.59375 52.65625 34.296875 
Q 57.90625 29 57.90625 20.125 
Q 57.90625 9.515625 50.796875 4.046875 
Q 43.703125 -1.421875 29.984375 -1.421875 
Q 24.8125 -1.421875 18.96875 -0.25 
Q 13.140625 0.921875 6.890625 3.21875 
L 6.890625 13.375 
Q 12.890625 10.015625 18.65625 8.296875 
Q 24.421875 6.59375 29.984375 6.59375 
Q 38.421875 6.59375 43.015625 9.90625 
Q 47.609375 13.234375 47.609375 19.390625 
Q 47.609375 24.75 44.3125 27.78125 
Q 41.015625 30.8125 33.5 32.328125 
L 27.484375 33.5 
Q 16.453125 35.6875 11.515625 40.375 
Q 6.59375 45.0625 6.59375 53.421875 
Q 6.59375 63.09375 13.40625 68.65625 
Q 20.21875 74.21875 32.171875 74.21875 
Q 37.3125 74.21875 42.625 73.28125 
Q 47.953125 72.359375 53.515625 70.515625 
" id="BitstreamVeraSans-Roman-53"/>
      <path d="M 18.109375 8.203125 
L 18.109375 -20.796875 
L 9.078125 -20.796875 
L 9.078125 54.6875 
L 18.109375 54.6875 
L 18.109375 46.390625 
Q 20.953125 51.265625 25.265625 53.625 
Q 29.59375 56 35.59375 56 
Q 45.5625 56 51.78125 48.09375 
Q 58.015625 40.1875 58.015625 27.296875 
Q 58.015625 14.40625 51.78125 6.484375 
Q 45.5625 -1.421875 35.59375 -1.421875 
Q 29.59375 -1.421875 25.265625 0.953125 
Q 20.953125 3.328125 18.109375 8.203125 
M 48.6875 27.296875 
Q 48.6875 37.203125 44.609375 42.84375 
Q 40.53125 48.484375 33.40625 48.484375 
Q 26.265625 48.484375 22.1875 42.84375 
Q 18.109375 37.203125 18.109375 27.296875 
Q 18.109375 17.390625 22.1875 11.75 
Q 26.265625 6.109375 33.40625 6.109375 
Q 40.53125 6.109375 44.609375 11.75 
Q 48.6875 17.390625 48.6875 27.296875 
" id="BitstreamVeraSans-Roman-70"/>
      <path d="M 28.609375 0 
L 0.78125 72.90625 
L 11.078125 72.90625 
L 34.1875 11.53125 
L 57.328125 72.90625 
L 67.578125 72.90625 
L 39.796875 0 
z
" id="BitstreamVeraSans-Roman-56"/>
      <path d="M 4.203125 54.6875 
L 13.1875 54.6875 
L 24.421875 12.015625 
L 35.59375 54.6875 
L 46.1875 54.6875 
L 57.421875 12.015625 
L 68.609375 54.6875 
L 77.59375 54.6875 
L 63.28125 0 
L 52.6875 0 
L 40.921875 44.828125 
L 29.109375 0 
L 18.5 0 
z
" id="BitstreamVeraSans-Roman-77"/>
      <path d="M 18.3125 70.21875 
L 18.3125 54.6875 
L 36.8125 54.6875 
L 36.8125 47.703125 
L 18.3125 47.703125 
L 18.3125 18.015625 
Q 18.3125 11.328125 20.140625 9.421875 
Q 21.96875 7.515625 27.59375 7.515625 
L 36.8125 7.515625 
L 36.8125 0 
L 27.59375 0 
Q 17.1875 0 13.234375 3.875 
Q 9.28125 7.765625 9.28125 18.015625 
L 9.28125 47.703125 
L 2.6875 47.703125 
L 2.6875 54.6875 
L 9.28125 54.6875 
L 9.28125 70.21875 
z
" id="BitstreamVeraSans-Roman-74"/>
      <path d="M 8.5 21.578125 
L 8.5 54.6875 
L 17.484375 54.6875 
L 17.484375 21.921875 
Q 17.484375 14.15625 20.5 10.265625 
Q 23.53125 6.390625 29.59375 6.390625 
Q 36.859375 6.390625 41.078125 11.03125 
Q 45.3125 15.671875 45.3125 23.6875 
L 45.3125 54.6875 
L 54.296875 54.6875 
L 54.296875 0 
L 45.3125 0 
L 45.3125 8.40625 
Q 42.046875 3.421875 37.71875 1 
Q 33.40625 -1.421875 27.6875 -1.421875 
Q 18.265625 -1.421875 13.375 4.4375 
Q 8.5 10.296875 8.5 21.578125 
" id="BitstreamVeraSans-Roman-75"/>
      <path d="M 48.78125 52.59375 
L 48.78125 44.1875 
Q 44.96875 46.296875 41.140625 47.34375 
Q 37.3125 48.390625 33.40625 48.390625 
Q 24.65625 48.390625 19.8125 42.84375 
Q 14.984375 37.3125 14.984375 27.296875 
Q 14.984375 17.28125 19.8125 11.734375 
Q 24.65625 6.203125 33.40625 6.203125 
Q 37.3125 6.203125 41.140625 7.25 
Q 44.96875 8.296875 48.78125 10.40625 
L 48.78125 2.09375 
Q 45.015625 0.34375 40.984375 -0.53125 
Q 36.96875 -1.421875 32.421875 -1.421875 
Q 20.0625 -1.421875 12.78125 6.34375 
Q 5.515625 14.109375 5.515625 27.296875 
Q 5.515625 40.671875 12.859375 48.328125 
Q 20.21875 56 33.015625 56 
Q 37.15625 56 41.109375 55.140625 
Q 45.0625 54.296875 48.78125 52.59375 
" id="BitstreamVeraSans-Roman-63"/>
     </defs>
     <g transform="translate(17.8921875 160.74453125)rotate(-90.0)scale(0.1 -0.1)">
      <use xlink:href="#BitstreamVeraSans-Roman-4c"/>
      <use x="55.712890625" xlink:href="#BitstreamVeraSans-Roman-69"/>
      <use x="83.49609375" xlink:href="#BitstreamVeraSans-Roman-6e"/>
      <use x="146.875" xlink:href="#BitstreamVeraSans-Roman-65"/>
      <use x="208.3984375" xlink:href="#BitstreamVeraSans-Roman-61"/>
      <use x="269.677734375" xlink:href="#BitstreamVeraSans-Roman-72"/>
      <use x="310.791015625" xlink:href="#BitstreamVeraSans-Roman-20"/>
      <use x="342.578125" xlink:href="#BitstreamVeraSans-Roman-70"/>
      <use x="406.0546875" xlink:href="#BitstreamVeraSans-Roman-6f"/>
      <use x="467.236328125" xlink:href="#BitstreamVeraSans-Roman-77"/>
      <use x="549.0234375" xlink:href="#BitstreamVeraSans-Roman-65"/>
      <use x="610.546875" xlink:href="#BitstreamVeraSans-Roman-72"/>
      <use x="651.66015625" xlink:href="#BitstreamVeraSans-Roman-20"/>
      <use x="683.447265625" xlink:href="#BitstreamVeraSans-Roman-73"/>
      <use x="735.546875" xlink:href="#BitstreamVeraSans-Roman-70"/>
      <use x="799.0234375" xlink:href="#BitstreamVeraSans-Roman-65"/>
      <use x="860.546875" xlink:href="#BitstreamVeraSans-Roman-63"/>
      <use x="915.52734375" xlink:href="#BitstreamVeraSans-Roman-74"/>
      <use x="954.736328125" xlink:href="#BitstreamVeraSans-Roman-72"/>
      <use x="995.849609375" xlink:href="#BitstreamVeraSans-Roman-75"/>
      <use x="1059.22851562" xlink:href="#BitstreamVeraSans-Roman-6d"/>
      <use x="1156.640625" xlink:href="#BitstreamVeraSans-Roman-20"/>
      <use x="1188.42773438" xlink:href="#BitstreamVeraSans-Roman-5b"/>
      <use x="1227.44140625" xlink:href="#BitstreamVeraSans-Roman-56"/>
      <use x="1295.84960938" xlink:href="#BitstreamVeraSans-Roman-20"/>
      <use x="1327.63671875" xlink:href="#BitstreamVeraSans-Roman-52"/>
      <use x="1397.11914062" xlink:href="#BitstreamVeraSans-Roman-4d"/>
      <use x="1483.3984375" xlink:href="#BitstreamVeraSans-Roman-53"/>
      <use x="1546.875" xlink:href="#BitstreamVeraSans-Roman-5d"/>
     </g>
    </g>
   </g>
  </g>
 </g>
 <defs>
  <clipPath id="pbd6af0925b">
   <rect height="121.5" width="285.1875" x="57.6" y="20.7"/>
  </clipPath>
 </defs>
</svg>
